<svg width="500" height="486" viewBox="0 0 500 486" fill="none" xmlns="http://www.w3.org/2000/svg">
<g clip-path="url(#clip0_2091_646)">
<line x1="2.5" y1="0.5" x2="2.5" y2="485.5" stroke="#B7B7B7" stroke-opacity="0.8" stroke-linecap="round" stroke-dasharray="8 8"/>
<line x1="55.5" y1="0.5" x2="55.5" y2="485.5" stroke="#B7B7B7" stroke-opacity="0.8" stroke-linecap="round" stroke-dasharray="8 8"/>
<line x1="108.5" y1="0.5" x2="108.5" y2="485.5" stroke="#B7B7B7" stroke-opacity="0.8" stroke-linecap="round" stroke-dasharray="8 8"/>
<line x1="161.5" y1="0.5" x2="161.5" y2="485.5" stroke="#B7B7B7" stroke-opacity="0.8" stroke-linecap="round" stroke-dasharray="8 8"/>
<line x1="214.5" y1="0.5" x2="214.5" y2="485.5" stroke="#B7B7B7" stroke-opacity="0.8" stroke-linecap="round" stroke-dasharray="8 8"/>
<line x1="267.5" y1="0.5" x2="267.5" y2="485.5" stroke="#B7B7B7" stroke-opacity="0.8" stroke-linecap="round" stroke-dasharray="8 8"/>
<line x1="320.5" y1="0.5" x2="320.5" y2="485.5" stroke="#B7B7B7" stroke-opacity="0.8" stroke-linecap="round" stroke-dasharray="8 8"/>
<line x1="373.5" y1="0.5" x2="373.5" y2="485.5" stroke="#B7B7B7" stroke-opacity="0.8" stroke-linecap="round" stroke-dasharray="8 8"/>
<line x1="426.5" y1="0.5" x2="426.5" y2="485.5" stroke="#B7B7B7" stroke-opacity="0.8" stroke-linecap="round" stroke-dasharray="8 8"/>
<line x1="479.5" y1="0.5" x2="479.5" y2="485.5" stroke="#B7B7B7" stroke-opacity="0.8" stroke-linecap="round" stroke-dasharray="8 8"/>
<rect width="500" height="486" fill="url(#paint0_linear_2091_646)"/>
<rect width="500" height="242" transform="matrix(1 0 0 -1 0 486)" fill="url(#paint1_linear_2091_646)"/>
</g>
<defs>
<linearGradient id="paint0_linear_2091_646" x1="250" y1="0" x2="250" y2="486" gradientUnits="userSpaceOnUse">
<stop stop-color="#FBFBFB"/>
<stop offset="1" stop-color="#FBFBFB" stop-opacity="0"/>
</linearGradient>
<linearGradient id="paint1_linear_2091_646" x1="250" y1="0" x2="250" y2="242" gradientUnits="userSpaceOnUse">
<stop stop-color="#FBFBFB"/>
<stop offset="1" stop-color="#FBFBFB" stop-opacity="0"/>
</linearGradient>
<clipPath id="clip0_2091_646">
<rect width="500" height="486" fill="white"/>
</clipPath>
</defs>
</svg>
