<svg width="34" height="34" viewBox="0 0 34 34" fill="none" xmlns="http://www.w3.org/2000/svg">
<rect width="34" height="34" rx="6" fill="#DD1120"/>
<path d="M14.6331 17.1834C14.6081 17.1834 14.5915 17.1834 14.5665 17.1834C14.5248 17.1751 14.4665 17.1751 14.4165 17.1834C11.9998 17.1084 10.1748 15.2084 10.1748 12.8667C10.1748 10.4834 12.1165 8.54175 14.4998 8.54175C16.8831 8.54175 18.8248 10.4834 18.8248 12.8667C18.8165 15.2084 16.9831 17.1084 14.6581 17.1834C14.6498 17.1834 14.6415 17.1834 14.6331 17.1834ZM14.4998 9.79175C12.8081 9.79175 11.4248 11.1751 11.4248 12.8667C11.4248 14.5334 12.7248 15.8751 14.3831 15.9334C14.4331 15.9251 14.5415 15.9251 14.6498 15.9334C16.2831 15.8584 17.5665 14.5167 17.5748 12.8667C17.5748 11.1751 16.1915 9.79175 14.4998 9.79175Z" fill="white"/>
<path d="M20.783 17.2916C20.758 17.2916 20.733 17.2916 20.708 17.2833C20.3663 17.3166 20.0163 17.0749 19.983 16.7333C19.9496 16.3916 20.158 16.0833 20.4996 16.0416C20.5996 16.0333 20.708 16.0333 20.7996 16.0333C22.0163 15.9666 22.9663 14.9666 22.9663 13.7416C22.9663 12.4749 21.9413 11.4499 20.6746 11.4499C20.333 11.4583 20.0496 11.1749 20.0496 10.8333C20.0496 10.4916 20.333 10.2083 20.6746 10.2083C22.6246 10.2083 24.2163 11.7999 24.2163 13.7499C24.2163 15.6666 22.7163 17.2166 20.808 17.2916C20.7996 17.2916 20.7913 17.2916 20.783 17.2916Z" fill="white"/>
<path d="M14.6413 26.2916C13.008 26.2916 11.3663 25.8749 10.1247 25.0416C8.96634 24.2749 8.33301 23.2249 8.33301 22.0833C8.33301 20.9416 8.96634 19.8833 10.1247 19.1083C12.6247 17.4499 16.6747 17.4499 19.158 19.1083C20.308 19.8749 20.9497 20.9249 20.9497 22.0666C20.9497 23.2083 20.3163 24.2666 19.158 25.0416C17.908 25.8749 16.2747 26.2916 14.6413 26.2916ZM10.8163 20.1583C10.0163 20.6916 9.58301 21.3749 9.58301 22.0916C9.58301 22.7999 10.0247 23.4833 10.8163 24.0083C12.8913 25.3999 16.3913 25.3999 18.4663 24.0083C19.2663 23.4749 19.6997 22.7916 19.6997 22.0749C19.6997 21.3666 19.258 20.6833 18.4663 20.1583C16.3913 18.7749 12.8913 18.7749 10.8163 20.1583Z" fill="white"/>
<path d="M22.2835 24.7917C21.9918 24.7917 21.7335 24.5917 21.6751 24.2917C21.6085 23.95 21.8251 23.625 22.1585 23.55C22.6835 23.4417 23.1668 23.2333 23.5418 22.9417C24.0168 22.5833 24.2751 22.1333 24.2751 21.6583C24.2751 21.1833 24.0168 20.7333 23.5501 20.3833C23.1835 20.1 22.7251 19.9 22.1835 19.775C21.8501 19.7 21.6335 19.3667 21.7085 19.025C21.7835 18.6917 22.1168 18.475 22.4585 18.55C23.1751 18.7083 23.8001 18.9917 24.3085 19.3833C25.0835 19.9667 25.5251 20.7917 25.5251 21.6583C25.5251 22.525 25.0751 23.35 24.3001 23.9417C23.7835 24.3417 23.1335 24.6333 22.4168 24.775C22.3668 24.7917 22.3251 24.7917 22.2835 24.7917Z" fill="white"/>
</svg>
