<svg width="35" height="35" viewBox="0 0 35 35" fill="none" xmlns="http://www.w3.org/2000/svg">
<g id="vuesax/linear/sun">
<g id="sun">
<path id="Vector" d="M17.5 12.3958V4.375" stroke="#DD1120" stroke-width="1.5" stroke-linecap="round" stroke-linejoin="round"/>
<path id="Vector_2" d="M17.5 30.625V22.6042" stroke="#DD1120" stroke-width="1.5" stroke-linecap="round" stroke-linejoin="round"/>
<path id="Vector_3" d="M14.583 4.375H20.4163" stroke="#DD1120" stroke-width="1.5" stroke-linecap="round" stroke-linejoin="round"/>
<path id="Vector_4" d="M14.583 30.625H20.4163" stroke="#DD1120" stroke-width="1.5" stroke-linecap="round" stroke-linejoin="round"/>
<path id="Vector_5" d="M13.0813 14.9479L6.13965 10.9375" stroke="#DD1120" stroke-width="1.5" stroke-linecap="round" stroke-linejoin="round"/>
<path id="Vector_6" d="M28.8606 24.0625L21.9189 20.0521" stroke="#DD1120" stroke-width="1.5" stroke-linecap="round" stroke-linejoin="round"/>
<path id="Vector_7" d="M4.68164 13.4604L7.59831 8.41461" stroke="#DD1120" stroke-width="1.5" stroke-linecap="round" stroke-linejoin="round"/>
<path id="Vector_8" d="M27.4023 26.5854L30.319 21.5396" stroke="#DD1120" stroke-width="1.5" stroke-linecap="round" stroke-linejoin="round"/>
<path id="Vector_9" d="M22.6038 17.5C22.6038 18.4333 22.3559 19.2937 21.9184 20.0521C21.0288 21.5833 19.3809 22.6041 17.4997 22.6041C15.6184 22.6041 13.9705 21.5833 13.0809 20.0521C12.6434 19.2937 12.3955 18.4333 12.3955 17.5C12.3955 16.5666 12.6434 15.7062 13.0809 14.9479C13.9705 13.4166 15.6184 12.3958 17.4997 12.3958C19.3809 12.3958 21.0288 13.4166 21.9184 14.9479C22.3559 15.7062 22.6038 16.5666 22.6038 17.5Z" stroke="#DD1120" stroke-width="1.5" stroke-linecap="round" stroke-linejoin="round"/>
<path id="Vector_10" d="M28.8606 10.9375L21.9189 14.9479" stroke="#DD1120" stroke-width="1.5" stroke-linecap="round" stroke-linejoin="round"/>
<path id="Vector_11" d="M13.0813 20.0521L6.13965 24.0625" stroke="#DD1120" stroke-width="1.5" stroke-linecap="round" stroke-linejoin="round"/>
<path id="Vector_12" d="M30.319 13.4604L27.4023 8.41461" stroke="#DD1120" stroke-width="1.5" stroke-linecap="round" stroke-linejoin="round"/>
<path id="Vector_13" d="M7.59831 26.5854L4.68164 21.5396" stroke="#DD1120" stroke-width="1.5" stroke-linecap="round" stroke-linejoin="round"/>
</g>
</g>
</svg>
