<svg width="35" height="35" viewBox="0 0 35 35" fill="none" xmlns="http://www.w3.org/2000/svg">
<g id="vuesax/broken/people">
<g id="people">
<g id="Group">
<path id="Vector" d="M26.2502 10.4416C26.1627 10.427 26.0606 10.427 25.9731 10.4416C23.9606 10.3687 22.3564 8.7208 22.3564 6.67913C22.3564 4.59371 24.0335 2.91663 26.1189 2.91663C28.2044 2.91663 29.8814 4.6083 29.8814 6.67913C29.8669 8.7208 28.2627 10.3687 26.2502 10.4416Z" stroke="#DD1120" stroke-width="1.5" stroke-linecap="round" stroke-linejoin="round"/>
<path id="Vector_2" d="M24.7479 21.0583C26.7458 21.3937 28.9479 21.0437 30.4937 20.0083C32.5499 18.6374 32.5499 16.3916 30.4937 15.0208C28.9333 13.9854 26.702 13.6354 24.7041 13.9854" stroke="#DD1120" stroke-width="1.5" stroke-linecap="round" stroke-linejoin="round"/>
</g>
<g id="Group_2">
<path id="Vector_3" d="M8.70547 10.4416C8.79297 10.427 8.89505 10.427 8.98255 10.4416C10.9951 10.3687 12.5992 8.7208 12.5992 6.67913C12.5992 4.59371 10.9221 2.91663 8.83672 2.91663C6.7513 2.91663 5.07422 4.6083 5.07422 6.67913C5.0888 8.7208 6.69297 10.3687 8.70547 10.4416Z" stroke="#DD1120" stroke-width="1.5" stroke-linecap="round" stroke-linejoin="round"/>
<path id="Vector_4" d="M10.2079 21.0583C8.21002 21.3937 6.00794 21.0437 4.46211 20.0083C2.40586 18.6374 2.40586 16.3916 4.46211 15.0208C6.02253 13.9854 8.25377 13.6354 10.2517 13.9854" stroke="#DD1120" stroke-width="1.5" stroke-linecap="round" stroke-linejoin="round"/>
</g>
<g id="Group_3">
<path id="Vector_5" d="M17.5002 21.3354C17.4127 21.3208 17.3106 21.3208 17.2231 21.3354C15.2106 21.2625 13.6064 19.6146 13.6064 17.5729C13.6064 15.4875 15.2835 13.8104 17.3689 13.8104C19.4544 13.8104 21.1314 15.5021 21.1314 17.5729C21.1169 19.6146 19.5127 21.2771 17.5002 21.3354Z" stroke="#DD1120" stroke-width="1.5" stroke-linecap="round" stroke-linejoin="round"/>
<path id="Vector_6" d="M21.7436 25.9292C19.4248 24.3833 15.5894 24.3833 13.2561 25.9292C11.1998 27.3 11.1998 29.5458 13.2561 30.9166C15.5894 32.4771 19.4102 32.4771 21.7436 30.9166" stroke="#DD1120" stroke-width="1.5" stroke-linecap="round" stroke-linejoin="round"/>
</g>
</g>
</g>
</svg>
