<svg width="34" height="34" viewBox="0 0 34 34" fill="none" xmlns="http://www.w3.org/2000/svg">
<rect width="34" height="34" rx="6" fill="#DD1120"/>
<path d="M25.3337 25.9584H11.167C9.44199 25.9584 8.04199 24.5584 8.04199 22.8334V8.66675C8.04199 8.32508 8.32533 8.04175 8.66699 8.04175C9.00866 8.04175 9.29199 8.32508 9.29199 8.66675V22.8334C9.29199 23.8667 10.1337 24.7084 11.167 24.7084H25.3337C25.6753 24.7084 25.9587 24.9917 25.9587 25.3334C25.9587 25.6751 25.6753 25.9584 25.3337 25.9584Z" fill="white"/>
<path d="M11.1668 21.7917C11.0252 21.7917 10.8752 21.7417 10.7585 21.6417C10.5002 21.4167 10.4668 21.025 10.6918 20.7584L14.5168 16.2917C14.9335 15.8083 15.5335 15.5167 16.1668 15.4917C16.8002 15.475 17.4252 15.7083 17.8752 16.1583L18.6668 16.95C18.8752 17.1583 19.1502 17.2583 19.4418 17.2583C19.7335 17.25 20.0002 17.1167 20.1918 16.8917L24.0168 12.425C24.2418 12.1667 24.6335 12.1333 24.9002 12.3583C25.1585 12.5833 25.1918 12.975 24.9668 13.2417L21.1418 17.7084C20.7252 18.1917 20.1252 18.4833 19.4918 18.5083C18.8585 18.525 18.2335 18.2917 17.7835 17.8417L17.0002 17.05C16.7918 16.8417 16.5168 16.7333 16.2252 16.7417C15.9335 16.75 15.6668 16.8834 15.4752 17.1084L11.6502 21.575C11.5168 21.7167 11.3418 21.7917 11.1668 21.7917Z" fill="white"/>
</svg>
