<svg width="34" height="34" viewBox="0 0 34 34" fill="none" xmlns="http://www.w3.org/2000/svg">
<rect width="34" height="34" rx="6" fill="#DD1120"/>
<path d="M17.125 23.125C16.7833 23.125 16.5 22.8417 16.5 22.5V20.75C16.5 20.4083 16.7833 20.125 17.125 20.125C17.4667 20.125 17.75 20.4083 17.75 20.75V22.5C17.75 22.8417 17.4667 23.125 17.125 23.125Z" fill="white"/>
<path d="M21.9163 25.9583H12.333V24.4999C12.333 23.2333 13.358 22.2083 14.6247 22.2083H19.6247C20.8913 22.2083 21.9163 23.2333 21.9163 24.4999V25.9583ZM13.583 24.7083H20.6663V24.4999C20.6663 23.9249 20.1997 23.4583 19.6247 23.4583H14.6247C14.0497 23.4583 13.583 23.9249 13.583 24.4999V24.7083Z" fill="white"/>
<path d="M22.125 25.9583H12.125C11.7833 25.9583 11.5 25.6749 11.5 25.3333C11.5 24.9916 11.7833 24.7083 12.125 24.7083H22.125C22.4667 24.7083 22.75 24.9916 22.75 25.3333C22.75 25.6749 22.4667 25.9583 22.125 25.9583Z" fill="white"/>
<path d="M22.3586 17.3666C22.1836 17.3666 22.0086 17.2916 21.8836 17.1499C21.7253 16.9666 21.6836 16.7082 21.7836 16.4916C22.0669 15.8416 22.2086 15.1499 22.2086 14.4249V11.9249C22.2086 11.6332 22.1586 11.3499 22.0586 11.0499C22.0503 11.0249 22.0419 10.9916 22.0336 10.9582C22.0086 10.8332 22.0003 10.7082 22.0003 10.5916C22.0003 10.2499 22.2836 9.96655 22.6253 9.96655H23.1253C24.6169 9.96655 25.8336 11.2166 25.8336 12.7582C25.8336 14.0332 25.3086 15.2916 24.4003 16.1999C24.3836 16.2166 24.3336 16.2582 24.3253 16.2666C23.8336 16.6749 23.2753 17.1332 22.5253 17.3416C22.4669 17.3582 22.4169 17.3666 22.3586 17.3666ZM23.4003 11.2416C23.4419 11.4666 23.4586 11.6999 23.4586 11.9249V14.4249C23.4586 14.7666 23.4336 15.0916 23.3836 15.4249C23.4336 15.3832 23.4753 15.3499 23.5253 15.3082C24.1919 14.6416 24.5836 13.7082 24.5836 12.7582C24.5836 12.0082 24.0753 11.3749 23.4003 11.2416Z" fill="white"/>
<path d="M11.6503 17.3333C11.5837 17.3333 11.5253 17.325 11.4587 17.3C10.7753 17.0833 10.1337 16.6833 9.60033 16.15C8.64199 15.0917 8.16699 13.9333 8.16699 12.7083C8.16699 11.1917 9.35866 10 10.8753 10H11.417C11.6253 10 11.8253 10.1083 11.942 10.2833C12.0587 10.4583 12.0753 10.6833 11.992 10.875C11.8587 11.175 11.792 11.5167 11.792 11.875V14.375C11.792 15.0917 11.9337 15.7917 12.2253 16.4583C12.3253 16.6833 12.2753 16.9417 12.117 17.125C11.992 17.2583 11.8253 17.3333 11.6503 17.3333ZM10.5837 11.275C9.90866 11.4083 9.41699 11.9917 9.41699 12.7083C9.41699 13.6167 9.78366 14.4917 10.5087 15.2917C10.542 15.3333 10.5837 15.3667 10.6253 15.4C10.567 15.0583 10.542 14.7167 10.542 14.375V11.875C10.542 11.675 10.5587 11.475 10.5837 11.275Z" fill="white"/>
<path d="M17.0003 20.9584C13.442 20.9584 10.542 18.0584 10.542 14.5001V12.0001C10.542 9.81675 12.317 8.04175 14.5003 8.04175H19.5003C21.6837 8.04175 23.4587 9.81675 23.4587 12.0001V14.5001C23.4587 18.0584 20.5587 20.9584 17.0003 20.9584ZM14.5003 9.29175C13.0087 9.29175 11.792 10.5084 11.792 12.0001V14.5001C11.792 17.3751 14.1253 19.7084 17.0003 19.7084C19.8753 19.7084 22.2087 17.3751 22.2087 14.5001V12.0001C22.2087 10.5084 20.992 9.29175 19.5003 9.29175H14.5003Z" fill="white"/>
</svg>
