<svg width="35" height="35" viewBox="0 0 35 35" fill="none" xmlns="http://www.w3.org/2000/svg">
<g id="heweather-icon-S1-bw-source_100">
<path id="Vector" fill-rule="evenodd" clip-rule="evenodd" d="M17.5735 10.2655C16.1749 10.2648 14.8075 10.679 13.6443 11.4556C12.4811 12.2322 11.5744 13.3363 11.0388 14.6283C10.5033 15.9203 10.363 17.3422 10.6357 18.7139C10.9084 20.0857 11.5818 21.3458 12.5708 22.3347C13.5597 23.3237 14.8198 23.9971 16.1916 24.2698C17.5633 24.5425 18.9852 24.4022 20.2772 23.8667C21.5692 23.3311 22.6734 22.4244 23.45 21.2612C24.2265 20.098 24.6407 18.7306 24.64 17.332C24.6372 15.4587 23.8918 13.6629 22.5672 12.3383C21.2426 11.0137 19.4468 10.2683 17.5735 10.2655ZM17.5735 22.3825C16.5745 22.3832 15.5977 22.0876 14.7666 21.533C13.9356 20.9785 13.2878 20.19 12.905 19.2672C12.5222 18.3444 12.4216 17.3288 12.6161 16.3488C12.8106 15.3689 13.2913 14.4687 13.9975 13.762C14.7037 13.0553 15.6036 12.574 16.5834 12.3788C17.5632 12.1836 18.5789 12.2835 19.5019 12.6656C20.425 13.0478 21.214 13.6951 21.7691 14.5257C22.3242 15.3564 22.6205 16.333 22.6205 17.332C22.6228 17.9964 22.494 18.6548 22.2414 19.2693C21.9889 19.8839 21.6175 20.4425 21.1487 20.9133C20.6798 21.3841 20.1227 21.7578 19.5092 22.0129C18.8957 22.268 18.2379 22.3995 17.5735 22.4V22.3825Z" fill="#DD1120"/>
<path id="Vector_2" fill-rule="evenodd" clip-rule="evenodd" d="M17.5734 4.20001C17.4408 4.20001 17.3094 4.2262 17.1869 4.27708C17.0644 4.32795 16.9531 4.40251 16.8594 4.49648C16.7658 4.59046 16.6916 4.70199 16.6412 4.82469C16.5907 4.94739 16.565 5.07885 16.5654 5.21151V7.23101C16.5806 7.48854 16.6936 7.73053 16.8813 7.9075C17.069 8.08447 17.3172 8.18304 17.5752 8.18304C17.8332 8.18304 18.0814 8.08447 18.2691 7.9075C18.4568 7.73053 18.5698 7.48854 18.5849 7.23101V5.21851C18.5859 5.08509 18.5604 4.95281 18.51 4.82928C18.4595 4.70575 18.3852 4.59341 18.2912 4.49874C18.1971 4.40408 18.0853 4.32894 17.9621 4.27767C17.839 4.2264 17.7069 4.20001 17.5734 4.20001Z" fill="#DD1120"/>
<path id="Vector_3" fill-rule="evenodd" clip-rule="evenodd" d="M17.5734 26.418C17.4408 26.418 17.3094 26.4442 17.1869 26.4951C17.0644 26.546 16.9531 26.6205 16.8594 26.7145C16.7658 26.8085 16.6916 26.92 16.6412 27.0427C16.5907 27.1654 16.565 27.2969 16.5654 27.4295V29.449C16.5806 29.7066 16.6936 29.9486 16.8813 30.1255C17.069 30.3025 17.3172 30.4011 17.5752 30.4011C17.8332 30.4011 18.0814 30.3025 18.2691 30.1255C18.4568 29.9486 18.5698 29.7066 18.5849 29.449V27.4295C18.5849 27.1613 18.4784 26.904 18.2887 26.7143C18.099 26.5246 17.8417 26.418 17.5734 26.418Z" fill="#DD1120"/>
<path id="Vector_4" fill-rule="evenodd" clip-rule="evenodd" d="M26.8523 8.05C26.6629 7.86213 26.4069 7.75671 26.1401 7.75671C25.8733 7.75671 25.6173 7.86213 25.4278 8.05L23.9998 9.478C23.8105 9.66736 23.7041 9.9242 23.7041 10.192C23.7041 10.4598 23.8105 10.7166 23.9998 10.906C24.1892 11.0954 24.446 11.2017 24.7138 11.2017C24.9817 11.2017 25.2385 11.0954 25.4278 10.906L26.8523 9.478C26.9463 9.38435 27.0209 9.27308 27.0718 9.15055C27.1226 9.02803 27.1488 8.89667 27.1488 8.764C27.1488 8.63133 27.1226 8.49997 27.0718 8.37745C27.0209 8.25492 26.9463 8.14365 26.8523 8.05Z" fill="#DD1120"/>
<path id="Vector_5" fill-rule="evenodd" clip-rule="evenodd" d="M11.1506 23.758C10.961 23.569 10.7042 23.463 10.4366 23.463C10.1689 23.463 9.91215 23.569 9.72255 23.758L8.29455 25.2C8.1464 25.3954 8.07458 25.6382 8.09255 25.8828C8.11052 26.1273 8.21705 26.357 8.39217 26.5287C8.5673 26.7004 8.79901 26.8023 9.04391 26.8155C9.2888 26.8286 9.53008 26.752 9.72255 26.6L11.1506 25.2C11.2458 25.1056 11.3214 24.9933 11.373 24.8696C11.4246 24.7458 11.4511 24.6131 11.4511 24.479C11.4511 24.3449 11.4246 24.2122 11.373 24.0884C11.3214 23.9647 11.2458 23.8523 11.1506 23.758Z" fill="#DD1120"/>
<path id="Vector_6" fill-rule="evenodd" clip-rule="evenodd" d="M4.44824 17.332C4.44824 17.6002 4.55481 17.8575 4.7445 18.0472C4.9342 18.2369 5.19148 18.3435 5.45974 18.3435H7.47924C7.73677 18.3283 7.97876 18.2153 8.15573 18.0276C8.3327 17.8399 8.43127 17.5917 8.43127 17.3337C8.43127 17.0758 8.3327 16.8275 8.15573 16.6398C7.97876 16.4521 7.73677 16.3391 7.47924 16.324H5.45974C5.32708 16.3235 5.19562 16.3493 5.07292 16.3997C4.95022 16.4502 4.83869 16.5243 4.74471 16.618C4.65074 16.7116 4.57618 16.8229 4.52531 16.9454C4.47443 17.068 4.44824 17.1993 4.44824 17.332Z" fill="#DD1120"/>
<path id="Vector_7" fill-rule="evenodd" clip-rule="evenodd" d="M26.6592 17.332C26.6592 17.6002 26.7657 17.8575 26.9554 18.0472C27.1451 18.2369 27.4024 18.3435 27.6707 18.3435H29.6902C29.9477 18.3283 30.1897 18.2153 30.3667 18.0276C30.5436 17.8399 30.6422 17.5917 30.6422 17.3337C30.6422 17.0758 30.5436 16.8275 30.3667 16.6398C30.1897 16.4521 29.9477 16.3391 29.6902 16.324H27.6707C27.403 16.324 27.1463 16.4301 26.9567 16.619C26.7671 16.8079 26.6601 17.0643 26.6592 17.332Z" fill="#DD1120"/>
<path id="Vector_8" fill-rule="evenodd" clip-rule="evenodd" d="M8.29164 8.05001C8.10355 8.24005 7.99805 8.49663 7.99805 8.76402C7.99805 9.0314 8.10355 9.28798 8.29164 9.47801L9.71964 10.9025C9.81317 10.9963 9.92426 11.0707 10.0466 11.1215C10.1689 11.1724 10.3 11.1986 10.4324 11.1988C10.5648 11.1989 10.696 11.173 10.8184 11.1225C10.9409 11.0719 11.0521 10.9978 11.1459 10.9043C11.2397 10.8107 11.3141 10.6996 11.3649 10.5773C11.4157 10.4551 11.442 10.3239 11.4422 10.1915C11.4423 10.0591 11.4164 9.92789 11.3659 9.80547C11.3153 9.68305 11.2412 9.57178 11.1476 9.47801L9.71964 8.05001C9.62599 7.95604 9.51472 7.88148 9.39219 7.8306C9.26967 7.77973 9.13831 7.75354 9.00564 7.75354C8.87297 7.75354 8.74161 7.77973 8.61909 7.8306C8.49656 7.88148 8.38529 7.95604 8.29164 8.05001Z" fill="#DD1120"/>
<path id="Vector_9" fill-rule="evenodd" clip-rule="evenodd" d="M23.9991 23.758C23.8102 23.9476 23.7041 24.2043 23.7041 24.472C23.7041 24.7396 23.8102 24.9964 23.9991 25.186L25.4271 26.6C25.6196 26.752 25.8609 26.8286 26.1058 26.8155C26.3507 26.8023 26.5824 26.7004 26.7575 26.5287C26.9326 26.357 27.0392 26.1274 27.0571 25.8828C27.0751 25.6382 27.0033 25.3954 26.8551 25.2L25.4271 23.772C25.3344 23.6771 25.2239 23.6014 25.1018 23.5494C24.9798 23.4973 24.8487 23.4698 24.716 23.4685C24.5834 23.4672 24.4517 23.4921 24.3287 23.5418C24.2057 23.5915 24.0937 23.6649 23.9991 23.758Z" fill="#DD1120"/>
</g>
</svg>
