<svg width="412" height="179" viewBox="0 0 412 179" fill="none" xmlns="http://www.w3.org/2000/svg">
<path d="M0 26C0 11.6406 11.6406 0 26 0H386C400.359 0 412 11.6406 412 26V89.5V114H373C358.641 114 347 125.641 347 140V179H206H26C11.6406 179 0 167.359 0 153V26Z" fill="#121212"/>
<path d="M358 151C358 136.641 369.641 125 384 125H412V153C412 167.359 400.359 179 386 179H358V151Z" fill="#121212"/>
<path d="M204 151C204 136.641 215.641 125 230 125H258V153C258 167.359 246.359 179 232 179H204V151Z" fill="white" fill-opacity="0.08"/>
<path d="M281 151C281 136.641 292.641 125 307 125H335V153C335 167.359 323.359 179 309 179H281V151Z" fill="white" fill-opacity="0.08"/>
</svg>
