<svg width="320" height="127" viewBox="0 0 320 127" fill="none" xmlns="http://www.w3.org/2000/svg">
<path d="M0 20C0 8.9543 8.95431 0 20 0H300C311.046 0 320 8.95431 320 20V89.5V82H298C284.745 82 274 92.7452 274 106V127H204.087H20C8.95429 127 0 118.046 0 107V20Z" fill="#DD1120"/>
<path d="M278 105C278 93.9543 286.954 85 298 85H320V107C320 118.046 311.046 127 300 127H278V105Z" fill="#DD1120"/>
<path d="M178 107C178 95.9543 186.954 87 198 87H218V107C218 118.046 209.046 127 198 127H178V107Z" fill="white" fill-opacity="0.14"/>
<path d="M228 107C228 95.9543 236.954 87 248 87H268V107C268 118.046 259.046 127 248 127H228V107Z" fill="white" fill-opacity="0.14"/>
</svg>
