<svg width="141" height="74" viewBox="0 0 141 74" fill="none" xmlns="http://www.w3.org/2000/svg">
<g clip-path="url(#clip0_2039_660)">
<path d="M20.8975 48.7096L36.7486 60.6853L122.13 39.1396L20.8975 48.7096Z" fill="#E13940"/>
<path d="M34.4091 20.9917C34.7772 20.5741 35.2286 20.2399 35.7338 20.0111C36.239 19.7822 36.7865 19.6639 37.3402 19.6639C37.8939 19.6639 38.4414 19.7822 38.9466 20.0111C39.4517 20.2399 39.9032 20.5741 40.2713 20.9917C41.0765 21.9104 41.5163 23.0974 41.5059 24.324C41.5059 26.8927 39.6408 28.984 37.3382 28.984C36.7857 28.9783 36.2405 28.8565 35.7373 28.6263C35.2341 28.3962 34.784 28.0627 34.4155 27.6471C33.6166 26.7265 33.1757 25.5446 33.1745 24.3206C33.1733 23.0967 33.612 21.9139 34.4091 20.9917ZM37.3407 16.0293C32.7734 16.0293 29.0527 19.7583 29.0527 24.3473C29.0517 25.4289 29.263 26.5001 29.6745 27.4988C30.086 28.4975 30.6896 29.4039 31.4502 30.1658C33.0139 31.7421 35.1334 32.6276 37.3433 32.6276C39.5532 32.6276 41.6728 31.7421 43.2365 30.1658C43.9958 29.3979 44.5976 28.4863 45.0074 27.4833C45.4172 26.4802 45.6269 25.4054 45.6246 24.3204C45.6222 23.2354 45.4078 22.1616 44.9936 21.1604C44.5795 20.1592 43.9737 19.2503 43.211 18.4858C42.4424 17.7043 41.5277 17.0847 40.52 16.6631C39.5122 16.2414 38.4316 16.026 37.3407 16.0293Z" fill="#020202"/>
<path d="M135.051 16.2954L130.426 23.7613V16.2954H126.283V32.391H130.426V23.8406L135.252 32.391H140.263C140.263 32.391 134.774 24.1117 134.52 23.7775C134.786 23.4496 140.042 16.2954 140.042 16.2954H135.051Z" fill="#020202"/>
<path d="M104.613 16.2939V22.1408H99.5982V16.2939H95.4463V32.3909H99.5982V25.4113H104.613V32.3909H108.806V16.2939H104.613Z" fill="#020202"/>
<path d="M112.65 16.2939V32.3909H122.779V29.0105H116.824V25.4113H122.596V22.2494H116.824V19.6744H122.779V16.2939H112.65Z" fill="#020202"/>
<path d="M91.8689 26.2587C90.2434 28.0893 88.6585 28.68 86.7055 28.68C83.3863 28.68 81.0208 26.0744 81.0208 22.8603C81.0208 19.6461 83.3402 17.0403 86.6587 17.0403C88.6707 17.0403 90.4231 17.8175 91.8693 19.5822L92.0832 19.8532V15.3389C90.2681 13.9138 88.5071 13.3149 86.3868 13.3149C80.6893 13.3149 76.7852 17.2109 76.7852 22.9C76.7809 24.1583 77.0232 25.4051 77.4984 26.5684C77.9736 27.7317 78.6721 28.7885 79.5538 29.678C80.4499 30.5852 81.5152 31.3042 82.6881 31.7936C83.861 32.2829 85.1183 32.5329 86.3874 32.5291C88.3741 32.5291 90.3145 31.879 92.0834 30.5005V26.011L91.8689 26.2587Z" fill="#020202"/>
<path d="M70.3512 32.3909V19.8495H73.9238V16.2939H62.6768V19.8495H66.1981V32.3909H70.3512Z" fill="#020202"/>
<path d="M0.886823 27.0313C1.82016 27.9622 4.27784 29.0278 5.69698 28.9821C6.9859 28.932 8.35167 28.4649 8.38996 26.8477C8.38996 25.9354 7.84672 25.4173 6.95838 24.9543C6.31399 24.6185 5.70383 24.3413 4.80123 23.9567C3.37105 23.346 0.541992 21.7381 0.541992 18.3503C0.586284 15.5355 3.20227 13.3918 6.59189 13.3393C8.50481 13.3098 10.457 13.7442 11.8314 14.5932L11.8331 19.0488L11.6193 18.8149C10.743 17.8567 8.79207 16.6943 6.93435 16.7828C6.26788 16.8145 5.71417 17.0091 5.32924 17.3418C4.93634 17.6804 4.7895 17.9696 4.78321 18.4392C4.77063 19.3671 5.59485 19.7682 6.96481 20.3687L8.10716 20.855C11.0638 22.1125 12.6855 23.943 12.6396 26.6061C12.6267 27.4084 12.4464 28.1989 12.1103 28.9261C11.7743 29.6533 11.2901 30.3008 10.6893 30.8262C9.46231 31.924 7.71022 32.5463 5.96259 32.534C3.45559 32.5165 1.61728 31.7842 0.67305 31.2291V26.818L0.886823 27.0313Z" fill="#020202"/>
<path d="M48.3652 32.3907H52.5306V19.6086H54.2753C54.9483 19.5907 55.4781 19.7629 55.8292 20.0928C56.1885 20.4303 56.3775 20.9489 56.3775 21.5408C56.3775 22.0154 56.2203 23.6889 54.2416 23.6889H52.6799L56.7932 32.3913H61.8044C61.8044 32.3913 59.5631 28.8827 57.9168 26.3164C59.5289 25.489 60.5382 23.8045 60.5382 21.645C60.5382 19.8446 59.8856 18.3674 58.7765 17.4235C57.927 16.695 56.7624 16.2905 55.4861 16.2905H48.3652V32.3907Z" fill="#020202"/>
<path d="M21.081 23.7679H19.8962V19.6088H21.1111C21.7221 19.5906 22.203 19.7661 22.5223 20.1025C22.8482 20.4465 23.0198 20.975 23.0198 21.5782C23.0194 22.0621 22.8767 23.7679 21.081 23.7679ZM21.8775 16.291H15.7451V32.3912H19.8962V26.8791H21.8775C24.8472 26.8791 26.9295 24.7516 26.9295 21.6452C26.9295 19.8448 26.2768 18.3676 25.1677 17.4237C24.3177 16.6952 23.1531 16.291 21.8775 16.291Z" fill="#020202"/>
</g>
<defs>
<clipPath id="clip0_2039_660">
<rect width="140" height="73" fill="white" transform="translate(0.201172 0.5)"/>
</clipPath>
</defs>
</svg>
