<svg width="1270" height="650" viewBox="0 0 1270 650" fill="none" xmlns="http://www.w3.org/2000/svg">
<g clip-path="url(#clip0_2004_230)">
<rect width="1270" height="650" rx="26" fill="#DD1120"/>
<path d="M1272.61 798.677C1265.37 841.422 1232.07 870.085 1183.94 881.789C1135.81 893.491 1072.93 888.214 1006.71 863.153C940.482 838.092 883.498 798.008 844.9 753.488C806.296 708.96 786.14 660.069 793.383 617.324C800.627 574.579 833.925 545.916 882.058 534.212C930.184 522.51 993.066 527.787 1059.29 552.848C1125.52 577.909 1182.5 617.993 1221.1 662.513C1259.7 707.041 1279.86 755.932 1272.61 798.677Z" stroke="white" stroke-opacity="0.24"/>
<path d="M1381.35 839.827C1370.81 902.04 1322.36 943.72 1252.38 960.735C1182.42 977.748 1091.01 970.074 994.76 933.65C898.507 897.225 815.675 838.963 759.561 774.239C703.44 709.507 674.099 638.386 684.642 576.173C695.184 513.961 743.64 472.28 813.613 455.265C883.579 438.253 974.983 445.927 1071.24 482.351C1167.49 518.776 1250.32 577.037 1306.43 641.762C1362.56 706.494 1391.9 777.615 1381.35 839.827Z" stroke="white" stroke-opacity="0.24"/>
<path d="M1513.67 889.9C1499.12 975.8 1432.22 1033.32 1335.67 1056.8C1239.13 1080.27 1113.02 1069.68 980.225 1019.43C847.434 969.179 733.149 888.798 655.721 799.489C578.286 710.172 537.769 612.001 552.326 526.101C566.882 440.201 633.782 382.68 730.331 359.203C826.871 335.728 952.982 346.319 1085.77 396.57C1218.56 446.822 1332.85 527.203 1410.28 616.512C1487.71 705.829 1528.23 804 1513.67 889.9Z" stroke="white" stroke-opacity="0.24"/>
<path d="M1018.91 223.421C932.801 134.167 935.355 -7.98961 1024.61 -94.0941C1113.86 -180.199 1256.02 -177.645 1342.12 -88.3906C1428.23 0.863881 1425.68 143.02 1336.42 229.125C1247.17 315.229 1105.01 312.676 1018.91 223.421ZM1261.32 -10.4376C1218.27 -55.0648 1147.19 -56.3416 1102.56 -13.2893C1057.94 29.7629 1056.66 100.841 1099.71 145.468C1142.76 190.096 1213.84 191.372 1258.47 148.32C1303.1 105.268 1304.37 34.1896 1261.32 -10.4376Z" fill="white" fill-opacity="0.12"/>
<path d="M69.5255 894.375C-18.0257 803.621 -15.4292 659.076 75.3248 571.525C166.079 483.974 310.624 486.571 398.175 577.325C485.726 668.079 483.13 812.624 392.376 900.175C301.621 987.726 157.077 985.129 69.5255 894.375ZM316.013 656.587C272.237 611.21 199.965 609.912 154.587 653.688C109.21 697.463 107.912 769.736 151.688 815.113C195.463 860.49 267.736 861.788 313.113 818.012C358.49 774.237 359.788 701.964 316.013 656.587Z" fill="white" fill-opacity="0.12"/>
<path d="M90.4804 101.874C85.0408 123.355 69.816 141.317 46.8591 155.394C23.8995 169.472 -6.76604 179.645 -43.01 185.542C-115.496 197.337 -210.198 192.017 -309.922 166.763C-409.647 141.51 -495.466 101.116 -553.602 56.2432C-582.671 33.8063 -604.799 10.2648 -618.291 -13.0444C-631.781 -36.3507 -636.622 -59.3943 -631.182 -80.8749C-625.743 -102.356 -610.518 -120.318 -587.561 -134.395C-564.601 -148.473 -533.936 -158.645 -497.692 -164.543C-425.206 -176.338 -330.504 -171.017 -230.78 -145.764C-131.055 -120.51 -45.2358 -80.1165 12.9004 -35.2438C41.9692 -12.807 64.0972 10.7346 77.589 34.0437C91.0793 57.3501 95.9201 80.3937 90.4804 101.874Z" stroke="white" stroke-opacity="0.28"/>
<path d="M254.132 143.316C246.21 174.599 224.041 200.741 190.652 221.214C157.26 241.689 112.674 256.476 59.9961 265.048C-45.3587 282.191 -182.985 274.457 -327.901 237.759C-472.816 201.062 -597.536 142.361 -682.034 77.141C-724.284 44.5305 -756.458 10.3053 -776.08 -23.5948C-795.7 -57.4921 -802.756 -91.0339 -794.834 -122.317C-786.912 -153.6 -764.743 -179.741 -731.354 -200.215C-697.962 -220.69 -653.376 -235.477 -600.698 -244.049C-495.343 -261.192 -357.717 -253.457 -212.801 -216.76C-67.8857 -180.063 56.8343 -121.362 141.332 -56.1418C183.582 -23.5313 215.756 10.694 235.378 44.5941C254.998 78.4914 262.054 112.033 254.132 143.316Z" stroke="white" stroke-opacity="0.28"/>
<path d="M453.265 193.744C442.323 236.955 411.704 273.048 365.621 301.305C319.535 329.564 258.012 349.966 185.336 361.792C39.9862 385.443 -149.872 374.771 -349.777 324.149C-549.681 273.526 -721.736 192.549 -838.311 102.57C-896.599 57.5802 -940.997 10.3549 -968.079 -36.4324C-995.159 -83.2169 -1004.91 -129.533 -993.966 -172.744C-983.024 -215.955 -952.405 -252.048 -906.322 -280.305C-860.236 -308.564 -798.713 -328.967 -726.037 -340.792C-580.687 -364.443 -390.829 -353.771 -190.924 -303.149C8.98054 -252.526 181.035 -171.549 297.61 -81.5704C355.898 -36.5804 400.296 10.6449 427.378 57.4322C454.458 104.217 464.208 150.533 453.265 193.744Z" stroke="white" stroke-opacity="0.28"/>
<g filter="url(#filter0_f_2004_230)">
<circle cx="219" r="325" fill="white" fill-opacity="0.1"/>
</g>
<g filter="url(#filter1_f_2004_230)">
<circle cx="1127" cy="742" r="325" fill="white" fill-opacity="0.1"/>
</g>
</g>
<defs>
<filter id="filter0_f_2004_230" x="-306" y="-525" width="1050" height="1050" filterUnits="userSpaceOnUse" color-interpolation-filters="sRGB">
<feFlood flood-opacity="0" result="BackgroundImageFix"/>
<feBlend mode="normal" in="SourceGraphic" in2="BackgroundImageFix" result="shape"/>
<feGaussianBlur stdDeviation="100" result="effect1_foregroundBlur_2004_230"/>
</filter>
<filter id="filter1_f_2004_230" x="602" y="217" width="1050" height="1050" filterUnits="userSpaceOnUse" color-interpolation-filters="sRGB">
<feFlood flood-opacity="0" result="BackgroundImageFix"/>
<feBlend mode="normal" in="SourceGraphic" in2="BackgroundImageFix" result="shape"/>
<feGaussianBlur stdDeviation="100" result="effect1_foregroundBlur_2004_230"/>
</filter>
<clipPath id="clip0_2004_230">
<rect width="1270" height="650" rx="26" fill="white"/>
</clipPath>
</defs>
</svg>
