<svg width="320" height="690" viewBox="0 0 320 690" fill="none" xmlns="http://www.w3.org/2000/svg">
<g clip-path="url(#clip0_2046_363)">
<rect width="320" height="690" rx="20" fill="#DD1120"/>
<path d="M403.969 554.393C400.203 576.613 382.886 591.551 357.779 597.656C332.679 603.759 299.869 601.009 265.302 587.929C230.736 574.848 201.004 553.93 180.874 530.711C160.737 507.484 150.265 482.03 154.03 459.809C157.796 437.589 175.112 422.651 200.22 416.546C225.319 410.443 258.13 413.193 292.696 426.273C327.262 439.354 356.994 460.272 377.125 483.491C397.262 506.718 407.734 532.172 403.969 554.393Z" stroke="white" stroke-opacity="0.14"/>
<path d="M460.783 575.893C455.294 608.285 430.057 630.024 393.539 638.903C357.029 647.781 309.316 643.779 259.061 624.761C208.806 605.743 165.569 575.328 136.287 541.553C106.998 507.77 91.7271 470.701 97.2162 438.31C102.705 405.918 127.942 384.179 164.46 375.299C200.97 366.421 248.683 370.423 298.938 389.441C349.193 408.459 392.43 438.874 421.712 472.65C451.001 506.432 466.272 543.501 460.783 575.893Z" stroke="white" stroke-opacity="0.14"/>
<path d="M529.914 602.054C522.328 646.822 487.455 676.837 437.052 689.093C386.657 701.347 320.811 695.821 251.466 669.579C182.121 643.337 122.451 601.365 82.0331 554.745C41.6083 508.117 20.498 456.916 28.0843 412.148C35.6706 367.38 70.5436 337.365 120.947 325.109C171.341 312.855 237.187 318.381 306.533 344.623C375.878 370.865 435.548 412.837 475.966 459.457C516.39 506.085 537.501 557.286 529.914 602.054Z" stroke="white" stroke-opacity="0.14"/>
<path d="M306.025 292.649C191.688 174.129 195.079 -14.638 313.599 -128.975C432.119 -243.312 620.886 -239.921 735.223 -121.401C849.56 -2.88157 846.169 185.886 727.649 300.223C609.13 414.56 420.362 411.169 306.025 292.649ZM627.924 -17.8886C570.755 -77.1484 476.371 -78.8439 417.112 -21.6754C357.852 35.493 356.156 129.877 413.325 189.137C470.493 248.396 564.877 250.092 624.137 192.923C683.397 135.755 685.092 41.3712 627.924 -17.8886Z" fill="white" fill-opacity="0.08"/>
<path d="M-109.053 846.035C-187.448 764.771 -185.123 635.342 -103.86 556.947C-22.5965 478.552 106.832 480.877 185.228 562.14C263.623 643.403 261.298 772.832 180.035 851.227C98.7715 929.623 -30.6573 927.298 -109.053 846.035ZM111.658 633.114C72.4599 592.482 7.7455 591.32 -32.8861 630.517C-73.5177 669.715 -74.6802 734.429 -35.4826 775.061C3.71509 815.693 68.4295 816.855 109.061 777.657C149.693 738.46 150.855 673.745 111.658 633.114Z" fill="white" fill-opacity="0.08"/>
<g filter="url(#filter0_f_2046_363)">
<circle cx="-256" r="325" fill="white" fill-opacity="0.1"/>
</g>
<g filter="url(#filter1_f_2046_363)">
<circle cx="652" cy="742" r="325" fill="white" fill-opacity="0.1"/>
</g>
<path d="M24.6476 119.094C20.5492 138.08 1.67651 150.905 -25.8085 156.152C-53.2614 161.392 -89.1504 159.031 -126.959 147.799C-164.767 136.567 -197.289 118.605 -219.307 98.6683C-241.35 78.7079 -252.745 56.8911 -248.647 37.9049C-244.548 18.9187 -225.676 6.0937 -198.191 0.847159C-170.738 -4.39325 -134.849 -2.03205 -97.0405 9.19989C-59.2322 20.4318 -26.7107 38.3938 -4.69268 58.3308C17.3511 78.2912 28.746 100.108 24.6476 119.094Z" stroke="white" stroke-opacity="0.16"/>
<path d="M86.7551 137.545C80.7726 165.26 53.2424 183.922 13.2832 191.55C-26.6439 199.171 -78.8238 195.735 -133.783 179.408C-188.742 163.081 -236.027 136.968 -268.049 107.972C-300.098 78.9528 -316.739 47.1686 -310.756 19.4537C-304.774 -8.2611 -277.243 -26.9232 -237.284 -34.5509C-197.357 -42.1725 -145.177 -38.7365 -90.2182 -22.4095C-35.2592 -6.08245 12.0257 20.0302 44.0484 49.0264C76.0969 78.0458 92.7377 109.83 86.7551 137.545Z" stroke="white" stroke-opacity="0.16"/>
<path d="M162.33 159.997C154.055 198.333 115.99 224.097 60.8524 234.622C5.74657 245.141 -66.2563 240.398 -142.085 217.871C-217.913 195.344 -283.162 159.313 -327.359 119.294C-371.581 79.2513 -394.605 35.3385 -386.33 -2.99751C-378.055 -41.3335 -339.99 -67.0983 -284.852 -77.6234C-229.746 -88.1424 -157.743 -83.3987 -81.915 -60.8718C-6.08657 -38.345 59.1627 -2.31443 103.359 37.705C147.582 77.7477 170.606 121.661 162.33 159.997Z" stroke="white" stroke-opacity="0.16"/>
</g>
<defs>
<filter id="filter0_f_2046_363" x="-781" y="-525" width="1050" height="1050" filterUnits="userSpaceOnUse" color-interpolation-filters="sRGB">
<feFlood flood-opacity="0" result="BackgroundImageFix"/>
<feBlend mode="normal" in="SourceGraphic" in2="BackgroundImageFix" result="shape"/>
<feGaussianBlur stdDeviation="100" result="effect1_foregroundBlur_2046_363"/>
</filter>
<filter id="filter1_f_2046_363" x="127" y="217" width="1050" height="1050" filterUnits="userSpaceOnUse" color-interpolation-filters="sRGB">
<feFlood flood-opacity="0" result="BackgroundImageFix"/>
<feBlend mode="normal" in="SourceGraphic" in2="BackgroundImageFix" result="shape"/>
<feGaussianBlur stdDeviation="100" result="effect1_foregroundBlur_2046_363"/>
</filter>
<clipPath id="clip0_2046_363">
<rect width="320" height="690" rx="20" fill="white"/>
</clipPath>
</defs>
</svg>
